#Comment line ignore any data following # character 
#Hierarchical Translation and Rotation (.htr) file 
[Header]	
#Header keywords are followed by a single value 
FileType HTR		#Single word string
DataType HTRS		#Translation followed by rotation and scale data
FileVersion 1		#integer
NumSegments 64		#integer
NumFrames 3		#integer
DataFrameRate 30		#integer, data frame rate in this file
EulerRotationOrder ZYX
CalibrationUnits mm
RotationUnits Degrees
GlobalAxisofGravity Y
BoneLengthAxis Y
ScaleFactor 1.00
[SegmentNames&Hierarchy]
#CHILD	PARENT
Pinger_Root GLOBAL
Pelvis Pinger_Root
L_Hip Pelvis
R_Hip Pelvis
Rear_Leg01 Pelvis
Spine1 Pelvis
L_Leg01 L_Hip
L_Leg02 L_Leg01
L_Leg03 L_Leg02
L_Foot L_Leg03
L_Toe1_01 L_Foot
L_Toe2_01 L_Foot
L_Toe3_01 L_Foot
planeAlignerLeft L_Foot
L_Toe1_02 L_Toe1_01
L_Toe1_03 L_Toe1_02
L_Toe2_02 L_Toe2_01
L_Toe2_03 L_Toe2_02
L_Toe3_02 L_Toe3_01
L_Toe3_03 L_Toe3_02
planeLockWeightLeft planeAlignerLeft
R_Leg01 R_Hip
R_Leg02 R_Leg01
R_Leg03 R_Leg02
R_Foot R_Leg03
planeAlignerRight R_Foot
R_Toe1_01 R_Foot
R_Toe2_01 R_Foot
R_Toe3_01 R_Foot
planeLockWeightRight planeAlignerRight
R_Toe1_02 R_Toe1_01
R_Toe1_03 R_Toe1_02
R_Toe2_02 R_Toe2_01
R_Toe2_03 R_Toe2_02
R_Toe3_02 R_Toe3_01
R_Toe3_03 R_Toe3_02
Rear_Leg02 Rear_Leg01
Rear_Leg03 Rear_Leg02
Rear_Leg04 Rear_Leg03
Rear_Foot Rear_Leg04
planeAlignerCenter Rear_Foot
Rear_Toe1_01 Rear_Foot
Rear_Toe2_01 Rear_Foot
Rear_Toe3_01 Rear_Foot
planeLockWeightCenter planeAlignerCenter
Rear_Toe1_02 Rear_Toe1_01
Rear_Toe1_03 Rear_Toe1_02
Rear_Toe2_02 Rear_Toe2_01
Rear_Toe2_03 Rear_Toe2_02
Rear_Toe3_02 Rear_Toe3_01
Rear_Toe3_03 Rear_Toe3_02
Back_Bone Spine1
Head Spine1
Motor_Bone Back_Bone
Ping_Mechanism Back_Bone
BN_LookIK Head
bottomMouth Head
L_Mouth01 Head
L_mouthFront Head
mouthGun Head
R_Mouth01 Head
R_mouthFront Head
TopMouth Head
weapon_bone Head
[BasePosition]
#SegmentName Tx, Ty, Tz, Rx, Ry, Rz, BoneLength
Pinger_Root 0.000000 0.000000 0.000000 -90.000000 0.000000 0.000000 10.000000 
Pelvis 0.000000 0.000000 0.000000 0.000000 0.000000 0.000000 10.000000 
L_Hip 0.000000 0.000000 0.000000 0.000000 0.000000 0.000000 10.000000 
R_Hip 0.000000 0.000000 0.000000 0.000000 0.000000 0.000000 10.000000 
Rear_Leg01 0.000000 0.000000 0.000000 0.000000 0.000000 0.000000 10.000000 
Spine1 0.000000 0.000000 0.000000 0.000000 0.000000 0.000000 10.000000 
L_Leg01 0.000000 0.000000 0.000000 0.000000 0.000000 0.000000 10.000000 
L_Leg02 0.000000 0.000000 0.000000 0.000000 0.000000 0.000000 10.000000 
L_Leg03 0.000000 0.000000 0.000000 0.000000 0.000000 0.000000 10.000000 
L_Foot 0.000000 0.000000 0.000000 0.000000 0.000000 0.000000 10.000000 
L_Toe1_01 0.000000 0.000000 0.000000 0.000000 0.000000 0.000000 10.000000 
L_Toe2_01 0.000000 0.000000 0.000000 0.000000 0.000000 0.000000 10.000000 
L_Toe3_01 0.000000 0.000000 0.000000 0.000000 0.000000 0.000000 10.000000 
planeAlignerLeft 0.000000 0.000000 0.000000 0.000000 0.000000 0.000000 10.000000 
L_Toe1_02 0.000000 0.000000 0.000000 0.000000 0.000000 0.000000 10.000000 
L_Toe1_03 0.000000 0.000000 0.000000 0.000000 0.000000 0.000000 10.000000 
L_Toe2_02 0.000000 0.000000 0.000000 0.000000 0.000000 0.000000 10.000000 
L_Toe2_03 0.000000 0.000000 0.000000 0.000000 0.000000 0.000000 10.000000 
L_Toe3_02 0.000000 0.000000 0.000000 0.000000 0.000000 0.000000 10.000000 
L_Toe3_03 0.000000 0.000000 0.000000 0.000000 0.000000 0.000000 10.000000 
planeLockWeightLeft 0.000000 0.000000 0.000000 0.000000 0.000000 0.000000 10.000000 
R_Leg01 0.000000 0.000000 0.000000 0.000000 0.000000 0.000000 10.000000 
R_Leg02 0.000000 0.000000 0.000000 0.000000 0.000000 0.000000 10.000000 
R_Leg03 0.000000 0.000000 0.000000 0.000000 0.000000 0.000000 10.000000 
R_Foot 0.000000 0.000000 0.000000 0.000000 0.000000 0.000000 10.000000 
planeAlignerRight 0.000000 0.000000 0.000000 0.000000 0.000000 0.000000 10.000000 
R_Toe1_01 0.000000 0.000000 0.000000 0.000000 0.000000 0.000000 10.000000 
R_Toe2_01 0.000000 0.000000 0.000000 0.000000 0.000000 0.000000 10.000000 
R_Toe3_01 0.000000 0.000000 0.000000 0.000000 0.000000 0.000000 10.000000 
planeLockWeightRight 0.000000 0.000000 0.000000 0.000000 0.000000 0.000000 10.000000 
R_Toe1_02 0.000000 0.000000 0.000000 0.000000 0.000000 0.000000 10.000000 
R_Toe1_03 0.000000 0.000000 0.000000 0.000000 0.000000 0.000000 10.000000 
R_Toe2_02 0.000000 0.000000 0.000000 0.000000 0.000000 0.000000 10.000000 
R_Toe2_03 0.000000 0.000000 0.000000 0.000000 0.000000 0.000000 10.000000 
R_Toe3_02 0.000000 0.000000 0.000000 0.000000 0.000000 0.000000 10.000000 
R_Toe3_03 0.000000 0.000000 0.000000 0.000000 0.000000 0.000000 10.000000 
Rear_Leg02 0.000000 0.000000 0.000000 0.000000 0.000000 0.000000 10.000000 
Rear_Leg03 0.000000 0.000000 0.000000 0.000000 0.000000 0.000000 10.000000 
Rear_Leg04 0.000000 0.000000 0.000000 0.000000 0.000000 0.000000 10.000000 
Rear_Foot 0.000000 0.000000 0.000000 0.000000 0.000000 0.000000 10.000000 
planeAlignerCenter 0.000000 0.000000 0.000000 0.000000 0.000000 0.000000 10.000000 
Rear_Toe1_01 0.000000 0.000000 0.000000 0.000000 0.000000 0.000000 10.000000 
Rear_Toe2_01 0.000000 0.000000 0.000000 0.000000 0.000000 0.000000 10.000000 
Rear_Toe3_01 0.000000 0.000000 0.000000 0.000000 0.000000 0.000000 10.000000 
planeLockWeightCenter 0.000000 0.000000 0.000000 0.000000 0.000000 0.000000 10.000000 
Rear_Toe1_02 0.000000 0.000000 0.000000 0.000000 0.000000 0.000000 10.000000 
Rear_Toe1_03 0.000000 0.000000 0.000000 0.000000 0.000000 0.000000 10.000000 
Rear_Toe2_02 0.000000 0.000000 0.000000 0.000000 0.000000 0.000000 10.000000 
Rear_Toe2_03 0.000000 0.000000 0.000000 0.000000 0.000000 0.000000 10.000000 
Rear_Toe3_02 0.000000 0.000000 0.000000 0.000000 0.000000 0.000000 10.000000 
Rear_Toe3_03 0.000000 0.000000 0.000000 0.000000 0.000000 0.000000 10.000000 
Back_Bone 0.000000 0.000000 0.000000 0.000000 0.000000 0.000000 10.000000 
Head 0.000000 0.000000 0.000000 0.000000 0.000000 0.000000 10.000000 
Motor_Bone 0.000000 0.000000 0.000000 0.000000 0.000000 0.000000 10.000000 
Ping_Mechanism 0.000000 0.000000 0.000000 0.000000 0.000000 0.000000 10.000000 
BN_LookIK 0.000000 0.000000 0.000000 0.000000 0.000000 0.000000 10.000000 
bottomMouth 0.000000 0.000000 0.000000 0.000000 0.000000 0.000000 10.000000 
L_Mouth01 0.000000 0.000000 0.000000 0.000000 0.000000 0.000000 10.000000 
L_mouthFront 0.000000 0.000000 0.000000 0.000000 0.000000 0.000000 10.000000 
mouthGun 0.000000 0.000000 0.000000 0.000000 0.000000 0.000000 10.000000 
R_Mouth01 0.000000 0.000000 0.000000 0.000000 0.000000 0.000000 10.000000 
R_mouthFront 0.000000 0.000000 0.000000 0.000000 0.000000 0.000000 10.000000 
TopMouth 0.000000 0.000000 0.000000 0.000000 0.000000 0.000000 10.000000 
weapon_bone 0.000000 0.000000 0.000000 0.000000 0.000000 0.000000 10.000000 
#Beginning of Data. Separated by tabs
#Fr	Tx	Ty	Tz	Rx	Ry	Rz	SF
[Pinger_Root]
74 0.000000 0.000000 0.000000 -0.000075 -0.000000 -0.000020 0.000000
75 0.000000 0.000000 0.000000 -0.000075 -0.000000 -0.000020 0.000000
76 0.000000 0.000000 0.000000 -0.000075 -0.000000 -0.000020 0.000000
[Pelvis]
74 4.220383 1002.308472 3653.977783 -89.977745 -84.293839 89.978912 3788.956787
75 4.369619 1002.308472 3654.980469 -90.029366 -83.120461 90.026978 3789.923828
76 4.440341 1002.308472 3654.830322 -89.977852 -82.682487 89.979004 3789.779297
[L_Hip]
74 5.766392 125.831482 872.656799 -121.855164 -74.309326 30.031721 881.701050
75 5.766392 125.831482 872.656799 -121.855164 -74.309326 30.031721 881.701050
76 5.766392 125.831482 872.656799 -121.855164 -74.309326 30.031721 881.701050
[R_Hip]
74 5.765438 125.836372 -872.654907 -62.006908 72.295975 26.002958 881.699829
75 5.765438 125.836372 -872.654907 -62.006908 72.295975 26.002958 881.699829
76 5.765438 125.836372 -872.654907 -62.006908 72.295975 26.002958 881.699829
[Rear_Leg01]
74 -192.298416 -925.602966 -0.001907 176.244186 -1.866834 -123.027130 945.367432
75 -192.298416 -925.602966 -0.001907 176.270294 -1.863522 -124.414017 945.367432
76 -192.298416 -925.602966 -0.001907 176.278900 -1.869170 -124.928024 945.367432
[Spine1]
74 290.604584 5.007505 0.000477 0.001894 0.001387 17.568289 290.647736
75 290.604584 5.007505 0.000477 0.001879 0.001406 16.393160 290.647736
76 290.604584 5.007505 0.000477 0.001874 0.001413 15.953543 290.647736
[L_Leg01]
74 761.932007 -0.002384 -0.069261 74.278000 -36.236980 -75.341843 761.932068
75 761.932007 -0.002384 -0.069261 73.526062 -37.429657 -74.631180 761.932068
76 761.932007 -0.002384 -0.069261 73.236664 -37.868732 -74.355278 761.932068
[L_Leg02]
74 1441.140503 -0.000954 -0.000715 3.616399 0.347424 -109.216537 1441.140503
75 1441.140503 -0.000954 -0.000715 3.661519 0.360123 -109.699776 1441.140503
76 1441.140503 -0.000954 -0.000715 3.669493 0.363137 -109.786156 1441.140503
[L_Leg03]
74 1686.963989 -0.000715 -0.000954 -0.069226 0.036569 129.428955 1686.963989
75 1686.963989 -0.000715 -0.000954 -0.069906 0.036341 129.632599 1686.963989
76 1686.963989 -0.000715 -0.000954 -0.069982 0.036510 129.639084 1686.963989
[L_Foot]
74 3041.570068 -30.715107 11.297464 1.852275 24.673861 38.710808 3041.746094
75 3041.570068 -30.715107 11.297464 1.847433 24.666925 38.923401 3041.746094
76 3041.570068 -30.715107 11.297464 1.845839 24.666468 38.927135 3041.746094
[L_Toe1_01]
74 -188.216690 -224.732346 -21.137953 94.536530 -11.874324 -178.539001 293.899567
75 -188.216690 -224.732346 -21.137953 94.536530 -11.874324 -178.539001 293.899567
76 -188.216690 -224.732346 -21.137953 94.536530 -11.874324 -178.539001 293.899567
[L_Toe2_01]
74 200.746536 -219.926590 148.838394 -89.374718 -33.866005 -48.481186 332.896027
75 200.746536 -219.926590 148.838394 -89.375359 -33.866119 -48.480526 332.896027
76 200.746536 -219.926590 148.838394 -89.375984 -33.866238 -48.479870 332.896027
[L_Toe3_01]
74 188.832520 -219.859131 -191.078659 -97.056129 10.777826 -57.826061 347.140900
75 188.832520 -219.859131 -191.078659 -97.055817 10.777716 -57.825340 347.140900
76 188.832520 -219.859131 -191.078659 -97.055504 10.777608 -57.824600 347.140900
[planeAlignerLeft]
74 0.812531 -811.448792 -0.314951 0.000000 -90.000000 -90.001900 811.449280
75 0.812531 -811.448792 -0.314951 0.000000 -90.000000 -90.001900 811.449280
76 0.812531 -811.448792 -0.314951 0.000000 -90.000000 -90.001900 811.449280
[L_Toe1_02]
74 413.761139 0.000477 0.000000 0.000203 -25.410625 -0.000182 413.761139
75 413.761139 0.000477 0.000000 0.000203 -25.410625 -0.000182 413.761139
76 413.761139 0.000477 0.000000 0.000203 -25.410625 -0.000182 413.761139
[L_Toe1_03]
74 464.317322 0.000358 -0.000089 0.004342 58.635971 0.004342 464.317322
75 464.317322 0.000358 -0.000089 0.004342 58.635971 0.004342 464.317322
76 464.317322 0.000358 -0.000089 0.004342 58.635971 0.004342 464.317322
[L_Toe2_02]
74 342.235809 -0.000477 0.000238 0.001191 -70.156403 0.001191 342.235809
75 342.235809 -0.000477 0.000238 0.001191 -70.156403 0.001191 342.235809
76 342.235809 -0.000477 0.000238 0.001191 -70.156403 0.001191 342.235809
[L_Toe2_03]
74 420.210846 -0.000715 0.000000 0.013353 79.915703 0.013353 420.210846
75 420.210846 -0.000715 0.000000 0.013353 79.915703 0.013353 420.210846
76 420.210846 -0.000715 0.000000 0.013353 79.915703 0.013353 420.210846
[L_Toe3_02]
74 329.270111 0.000954 0.000000 0.001176 -83.130447 0.001176 329.270111
75 329.270111 0.000954 0.000000 0.001176 -83.130447 0.001176 329.270111
76 329.270111 0.000954 0.000000 0.001176 -83.130447 0.001176 329.270111
[L_Toe3_03]
74 439.137451 -0.001907 0.000954 179.990875 65.540901 179.998047 439.137451
75 439.137451 -0.001907 0.000954 179.990875 65.540901 179.998047 439.137451
76 439.137451 -0.001907 0.000954 179.990875 65.540901 179.998047 439.137451
[planeLockWeightLeft]
74 -0.000954 0.000238 -0.000305 -0.011826 -0.004376 0.005620 0.001029
75 -0.000954 0.000238 -0.000305 -0.011826 -0.004376 0.005620 0.001029
76 -0.000954 0.000238 -0.000305 -0.011826 -0.004376 0.005620 0.001029
[R_Leg01]
74 761.455627 -0.001907 -0.000358 95.812866 -25.581640 78.998184 761.455688
75 761.455627 -0.001907 -0.000358 96.395538 -26.728432 78.534134 761.455688
76 761.455627 -0.001907 -0.000358 96.620735 -27.162477 78.353516 761.455688
[R_Leg02]
74 1441.140625 0.000000 -0.000238 -1.089505 -0.440796 -131.778748 1441.140625
75 1441.140625 0.000000 -0.000238 -1.094315 -0.447531 -132.222580 1441.140625
76 1441.140625 0.000000 -0.000238 -1.096138 -0.449233 -132.312668 1441.140625
[R_Leg03]
74 1686.963989 0.000954 0.001431 0.109927 -0.067514 140.661057 1686.963989
75 1686.963989 0.000954 0.001431 0.109850 -0.067638 140.791046 1686.963989
76 1686.963989 0.000954 0.001431 0.109773 -0.067763 140.921021 1686.963989
[R_Foot]
74 3041.560059 -30.531288 -11.204481 -15.326601 -25.041294 50.398552 3041.734131
75 3041.560059 -30.531288 -11.204481 -15.310472 -25.041430 50.538971 3041.734131
76 3041.560059 -30.531288 -11.204481 -15.294341 -25.041599 50.679390 3041.734131
[planeAlignerRight]
74 -0.635147 -812.270569 -0.364304 0.000000 -89.960434 -90.005180 812.270874
75 -0.635147 -812.270569 -0.364304 0.000000 -89.960434 -90.005180 812.270874
76 -0.635147 -812.270569 -0.364304 0.000000 -89.960434 -90.005180 812.270874
[R_Toe1_01]
74 -188.383347 -224.864899 21.052242 58.205410 26.475752 -166.995285 294.101532
75 -188.383347 -224.864899 21.052242 58.205437 26.475800 -166.995239 294.101532
76 -188.383347 -224.864899 21.052242 58.205444 26.475840 -166.995224 294.101532
[R_Toe2_01]
74 200.637817 -220.002121 -148.787384 -55.994591 39.712746 -29.524965 332.857574
75 200.637817 -220.002121 -148.787384 -55.994591 39.712746 -29.524965 332.857574
76 200.637817 -220.002121 -148.787384 -55.994591 39.712746 -29.524965 332.857574
[R_Toe3_01]
74 188.606735 -220.092957 191.126343 -53.843597 11.160182 -73.286163 347.192566
75 188.606735 -220.092957 191.126343 -53.843597 11.160208 -73.286110 347.192566
76 188.606735 -220.092957 191.126343 -53.843590 11.160236 -73.286057 347.192566
[planeLockWeightRight]
74 -0.000477 0.000000 0.000000 -0.011823 -0.004379 -0.000027 0.000477
75 -0.000477 0.000000 0.000000 -0.011823 -0.004379 -0.000027 0.000477
76 -0.000477 0.000000 0.000000 -0.011823 -0.004379 -0.000027 0.000477
[R_Toe1_02]
74 413.762085 0.000477 -0.000119 0.000006 -25.434675 -0.000005 413.762085
75 413.762085 0.000477 -0.000119 0.000006 -25.434675 -0.000005 413.762085
76 413.762085 0.000477 -0.000119 0.000006 -25.434675 -0.000005 413.762085
[R_Toe1_03]
74 464.317810 0.000000 0.001088 0.003184 46.739048 0.003184 464.317810
75 464.317810 0.000000 0.001088 0.003184 46.738995 0.003184 464.317810
76 464.317810 0.000000 0.001088 0.003184 46.738930 0.003184 464.317810
[R_Toe2_02]
74 342.234741 -0.000954 0.000238 0.001235 -53.660015 0.001235 342.234741
75 342.234741 -0.000954 0.000238 0.001235 -53.660015 0.001235 342.234741
76 342.234741 -0.000954 0.000238 0.001235 -53.660023 0.001235 342.234741
[R_Toe2_03]
74 420.210846 0.000715 -0.000268 -0.003602 51.671577 0.000100 420.210846
75 420.210846 0.000715 -0.000268 -0.003602 51.671577 0.000100 420.210846
76 420.210846 0.000715 -0.000268 -0.003602 51.671577 0.000100 420.210846
[R_Toe3_02]
74 329.270355 -0.000477 -0.000954 -0.002373 -66.445053 -0.002373 329.270355
75 329.270355 -0.000477 -0.000954 -0.002373 -66.445053 -0.002373 329.270355
76 329.270355 -0.000477 -0.000954 -0.002373 -66.445053 -0.002373 329.270355
[R_Toe3_03]
74 439.137939 0.000238 0.001431 0.005869 66.928558 0.005869 439.137939
75 439.137939 0.000238 0.001431 0.005869 66.928558 0.005869 439.137939
76 439.137939 0.000238 0.001431 0.005869 66.928558 0.005869 439.137939
[Rear_Leg02]
74 1162.777710 -0.029802 0.005960 -3.962481 7.211605 -98.224182 1162.777710
75 1162.777710 -0.029802 0.005960 -3.880619 7.252481 -97.627846 1162.777710
76 1162.777710 -0.029802 0.005960 -3.852785 7.267963 -97.401924 1162.777710
[Rear_Leg03]
74 607.192505 -0.013351 -0.073195 0.010377 -0.005336 70.781792 607.192505
75 607.192505 -0.013351 -0.073195 0.010389 -0.005312 70.517456 607.192505
76 607.192505 -0.013351 -0.073195 0.010389 -0.005312 70.518112 607.192505
[Rear_Leg04]
74 995.874512 -0.020504 -0.011921 -0.040953 -0.017083 72.075546 995.874573
75 995.874512 -0.020504 -0.011921 -0.040885 -0.017247 71.617500 995.874573
76 995.874512 -0.020504 -0.011921 -0.040872 -0.017276 71.535194 995.874573
[Rear_Foot]
74 3096.176270 -0.067472 -0.041425 94.839043 82.880096 -79.332520 3096.176270
75 3096.176270 -0.067472 -0.041425 94.836250 82.874840 -79.404327 3096.176270
76 3096.176270 -0.067472 -0.041425 94.833405 82.869583 -79.476120 3096.176270
[planeAlignerCenter]
74 0.350077 0.966311 -838.790894 0.000009 0.000003 -179.999985 838.791565
75 0.350077 0.966311 -838.790894 0.000009 0.000003 -179.999985 838.791565
76 0.350077 0.966311 -838.790894 0.000009 0.000003 -179.999985 838.791565
[Rear_Toe1_01]
74 0.653352 83.966492 -371.173737 5.369300 30.468699 103.565811 380.553192
75 0.653352 83.966492 -371.173737 5.369153 30.468784 103.565224 380.553192
76 0.653352 83.966492 -371.173737 5.369009 30.468893 103.564667 380.553192
[Rear_Toe2_01]
74 178.200760 -294.826019 -362.060547 -8.739021 22.954536 -73.361710 499.765686
75 178.200760 -294.826019 -362.060547 -8.738994 22.954582 -73.361221 499.765686
76 178.200760 -294.826019 -362.060547 -8.738966 22.954632 -73.360733 499.765686
[Rear_Toe3_01]
74 -153.359680 -308.780914 -362.060852 3.776545 19.494898 -119.567390 499.952881
75 -153.359680 -308.780914 -362.060852 3.776600 19.494871 -119.567329 499.952881
76 -153.359680 -308.780914 -362.060852 3.776653 19.494843 -119.567261 499.952881
[planeLockWeightCenter]
74 -0.000062 0.000238 0.000000 -0.011814 -0.004373 -0.000015 0.000246
75 -0.000062 0.000238 0.000000 -0.011814 -0.004373 -0.000015 0.000246
76 -0.000062 0.000238 0.000000 -0.011814 -0.004373 -0.000015 0.000246
[Rear_Toe1_02]
74 379.707825 0.194073 0.000477 -0.000341 -33.029854 0.006990 379.707855
75 379.707825 0.194073 0.000477 -0.000341 -33.030754 0.006990 379.707855
76 379.707825 0.194073 0.000477 -0.000342 -33.031651 0.006990 379.707855
[Rear_Toe1_03]
74 500.129700 0.165701 0.000119 -0.004071 60.580643 -0.000456 500.129761
75 500.129700 0.165701 0.000119 -0.004071 60.580772 -0.000456 500.129761
76 500.129700 0.165701 0.000119 -0.004071 60.580944 -0.000456 500.129761
[Rear_Toe2_02]
74 340.494507 0.000238 -0.000954 0.001179 -79.094414 0.001179 340.494507
75 340.494507 0.000238 -0.000954 0.001179 -79.094398 0.001179 340.494507
76 340.494507 0.000238 -0.000954 0.001179 -79.094414 0.001179 340.494507
[Rear_Toe2_03]
74 433.103577 0.000000 0.000238 0.031673 85.752869 0.031673 433.103546
75 433.103577 0.000000 0.000238 0.031673 85.752869 0.031673 433.103546
76 433.103577 0.000000 0.000238 0.031673 85.752869 0.031673 433.103546
[Rear_Toe3_02]
74 340.494141 -0.000358 -0.000477 -0.002471 -50.096046 -0.002471 340.494171
75 340.494141 -0.000358 -0.000477 -0.002471 -50.096046 -0.002471 340.494171
76 340.494141 -0.000358 -0.000477 -0.002471 -50.096046 -0.002471 340.494171
[Rear_Toe3_03]
74 433.103577 0.001431 -0.000238 0.000412 44.445374 -0.003381 433.103546
75 433.103577 0.001431 -0.000238 0.000412 44.445427 -0.003381 433.103546
76 433.103577 0.001431 -0.000238 0.000412 44.445484 -0.003381 433.103546
[Back_Bone]
74 1312.175781 -701.934692 0.000954 0.032871 0.001102 -85.655357 1488.125488
75 1312.175781 -701.934692 0.000954 0.032704 0.001109 -85.656250 1488.125488
76 1312.175781 -701.934692 0.000954 0.032538 0.001115 -85.657127 1488.125488
[Head]
74 1406.159424 809.709290 0.001431 0.001938 0.001325 21.269014 1622.625488
75 1406.159424 809.709290 0.001431 0.001938 0.001325 21.270351 1622.625488
76 1406.159424 809.709290 0.001431 0.001938 0.001325 21.271700 1622.625488
[Motor_Bone]
74 1158.364380 -417.834747 0.000477 -0.000105 0.000046 -105.985291 1231.419434
75 1158.364380 -417.834747 0.000477 -0.000105 0.000046 -105.985291 1231.419434
76 1158.364380 -417.834747 0.000477 -0.000105 0.000046 -105.985291 1231.419434
[Ping_Mechanism]
74 1254.957764 -349.166168 0.000775 0.000103 -0.000053 82.120995 1302.626587
75 1260.543091 -351.241974 0.000803 0.000103 -0.000053 82.120995 1308.563965
76 1262.638428 -351.986359 0.000644 0.000103 -0.000053 82.120995 1310.782227
[BN_LookIK]
74 193.241119 1380.371704 -0.002861 0.000000 89.965736 -31.038179 1393.832153
75 193.241119 1380.371704 -0.002861 0.000000 89.965736 -31.038179 1393.832153
76 193.241119 1380.371704 -0.002861 0.000000 89.965736 -31.038179 1393.832153
[bottomMouth]
74 -435.092926 615.759399 -0.000954 -0.000022 0.000016 73.527184 753.966492
75 -435.092926 615.759399 -0.000954 -0.000022 0.000016 73.527184 753.966492
76 -435.092926 615.759399 -0.000954 -0.000022 0.000016 73.527184 753.966492
[L_Mouth01]
74 554.440979 7.658243 838.222046 150.204178 23.759130 109.605339 1005.027161
75 554.440979 7.658243 838.222046 150.204178 23.759130 109.605339 1005.027161
76 554.440979 7.658243 838.222046 150.204178 23.759130 109.605339 1005.027161
[L_mouthFront]
74 551.629089 934.514771 339.150421 0.000081 2.804060 79.119301 1136.941284
75 551.629089 934.514771 339.150421 0.000081 2.804060 79.119301 1136.941284
76 551.629089 934.514771 339.150421 0.000081 2.804060 79.119301 1136.941284
[mouthGun]
74 55.332661 1627.420898 0.000000 0.000023 0.000009 -11.038128 1628.361328
75 55.332661 1627.420898 0.000000 0.000023 0.000009 -11.038128 1628.361328
76 55.332661 1627.420898 0.000000 0.000023 0.000009 -11.038128 1628.361328
[R_Mouth01]
74 554.442383 7.659197 -838.223938 29.795891 -23.759109 109.605331 1005.029541
75 554.442383 7.659197 -838.223938 29.795891 -23.759109 109.605331 1005.029541
76 554.442383 7.659197 -838.223938 29.795891 -23.759109 109.605331 1005.029541
[R_mouthFront]
74 551.629089 934.514282 -339.151367 0.000029 -2.803930 79.119133 1136.941162
75 551.629089 934.514282 -339.151367 0.000029 -2.803930 79.119133 1136.941162
76 551.629089 934.514282 -339.151367 0.000029 -2.803930 79.119133 1136.941162
[TopMouth]
74 461.269867 -56.106091 -0.008583 -0.000059 -0.000268 92.025169 464.669525
75 461.269867 -56.106091 -0.008583 -0.000059 -0.000268 92.025169 464.669525
76 461.269867 -56.106091 -0.008583 -0.000059 -0.000268 92.025169 464.669525
[weapon_bone]
74 -987.239868 1448.372803 0.001431 0.000000 89.965736 -31.038221 1752.833740
75 -987.239868 1448.372803 0.001431 0.000000 89.965736 -31.038221 1752.833740
76 -987.239868 1448.372803 0.001431 0.000000 89.965736 -31.038221 1752.833740
